<svg width="637" height="384" viewBox="0 0 637 384" fill="none" xmlns="http://www.w3.org/2000/svg">
<g clip-path="url(#clip0_20_620)">
<path d="M593.583 108.939H553.781V115.103H593.583V108.939Z" fill="#6C63FF"/>
<path d="M33.235 383.12C33.1924 382.932 29.071 364.138 37.4879 348.528C45.9047 332.92 63.8711 326.036 64.0516 325.968L64.8728 325.66L65.0667 326.516C65.1093 326.703 69.2306 345.497 60.8139 361.107C52.3974 376.716 34.4306 383.6 34.2501 383.668L33.4286 383.976L33.235 383.12ZM63.7467 327.748C60.1478 329.296 45.9443 336.072 38.8356 349.255C31.7262 362.44 33.8711 378.031 34.5551 381.887C38.1524 380.343 52.3503 373.578 59.4661 360.38C66.5752 347.196 64.431 331.606 63.7467 327.748Z" fill="#F1F1F1"/>
<path d="M54.3816 355.632C39.2562 364.732 33.4309 382.807 33.4309 382.807C33.4309 382.807 52.1288 386.128 67.2542 377.028C82.3797 367.928 88.205 349.852 88.205 349.852C88.205 349.852 69.5071 346.531 54.3816 355.632Z" fill="#99CC99"/>
<path d="M283.437 209.748C283.668 208.557 283.635 207.33 283.34 206.154C283.045 204.978 282.496 203.88 281.731 202.939C280.967 201.998 280.005 201.236 278.914 200.706C277.823 200.177 276.629 199.894 275.416 199.876L268.412 182.261L256.669 183.907L266.91 208.643C267.015 210.683 267.864 212.612 269.297 214.067C270.73 215.522 272.646 216.401 274.683 216.537C276.721 216.673 278.737 216.057 280.35 214.806C281.964 213.554 283.062 211.755 283.437 209.748Z" fill="#9F616A"/>
<path d="M261.804 203.558L258.166 194.882L235.492 151.722L236.725 71.8602L236.962 71.8288C251.47 69.9119 261.286 136.761 261.697 139.608L276.022 188.603L279.432 199.403L261.804 203.558Z" fill="#6C63FF"/>
<path d="M226.965 371.959L237.989 371.959L243.233 329.437L226.963 329.438L226.965 371.959Z" fill="#9F616A"/>
<path d="M224.153 368.36L245.863 368.359H245.864C249.534 368.359 253.052 369.817 255.647 372.412C258.242 375.006 259.699 378.525 259.7 382.195V382.644L224.154 382.645L224.153 368.36Z" fill="#2F2E41"/>
<path d="M125.604 355.163L134.649 361.466L163.263 329.578L149.914 320.276L125.604 355.163Z" fill="#9F616A"/>
<path d="M125.355 350.602L143.167 363.015L143.168 363.015C146.178 365.113 148.232 368.321 148.877 371.933C149.522 375.545 148.706 379.266 146.609 382.277L146.352 382.645L117.188 362.323L125.355 350.602Z" fill="#2F2E41"/>
<path d="M220.907 361.964L220.43 282.196L213.494 232.039L200.562 276.148L200.537 276.184L153.673 344.221L135.438 334.982L135.538 334.745C136.652 332.094 162.912 269.839 169.97 269.839C170.586 269.882 171.204 269.775 171.769 269.526C172.335 269.278 172.832 268.895 173.217 268.412C175.289 265.646 173.602 259.775 173.584 259.716C171.564 251.338 176.644 248.485 177.656 248.008L180.377 191.826L180.66 191.846L254.439 197.021L251.344 267.263L244.686 359.295L244.457 359.321L220.907 361.964Z" fill="#2F2E41"/>
<path d="M255.567 209.47L255.248 209.444L175.899 203.048L176.095 176.793L179.979 108.24L180.001 108.192L195.817 73.8551L207.028 68.7782L223.386 67.9174L223.426 67.9274L238.354 71.6259L253.883 183.106L255.567 209.47Z" fill="#6C63FF"/>
<path d="M225.949 59.1173C236.073 53.5828 239.794 40.8888 234.26 30.7644C228.725 20.6399 216.031 16.9191 205.907 22.4536C195.783 27.9881 192.062 40.6822 197.597 50.8066C203.131 60.931 215.825 64.6519 225.949 59.1173Z" fill="#9F616A"/>
<path d="M194.918 46.0298V37.8897C194.918 37.8897 188.353 30.1584 195.574 28.2108C195.574 28.2108 197.543 8.73549 214.611 17.824C214.611 17.824 238.242 13.9289 235.616 27.5617C235.616 27.5617 241.524 24.0026 239.555 33.0911L235.746 47.7311C235.746 47.7311 237.586 38.0603 231.678 36.7619L228.396 34.8144C228.396 34.8144 219.206 43.9029 205.421 32.8669C205.421 32.8669 199.513 31.4568 200.169 37.2994C200.825 43.142 194.918 46.0298 194.918 46.0298Z" fill="#2F2E41"/>
<path d="M213.753 189.864C213.766 188.651 213.513 187.45 213.012 186.346C212.511 185.241 211.774 184.26 210.853 183.472C209.932 182.683 208.849 182.106 207.68 181.781C206.512 181.456 205.286 181.391 204.09 181.591L194.039 165.519L182.782 169.246L197.296 191.743C197.765 193.73 198.947 195.476 200.617 196.651C202.288 197.825 204.331 198.345 206.359 198.113C208.388 197.882 210.261 196.914 211.624 195.393C212.986 193.873 213.744 191.905 213.753 189.864Z" fill="#9F616A"/>
<path d="M187.791 184.797L169.606 147.876L169.623 147.786C169.696 147.377 177.016 106.732 182.614 91.7918C188.248 76.7572 195.96 73.7386 196.286 73.6175L196.448 73.5569L203.363 80.1897L193.785 144.126L204.11 174.961L187.791 184.797Z" fill="#6C63FF"/>
<path d="M345.996 157.773H624.365V16.8466H345.996V157.773Z" fill="white"/>
<path d="M637 0.975586H601.79V36.1865H637V0.975586Z" fill="#99CC99"/>
<path d="M361.443 137.992H326.233V173.203H361.443V137.992Z" fill="#99CC99"/>
<path d="M626.662 160.07H343.699V14.55H626.662V160.07ZM348.292 155.477H622.069V19.1428H348.292V155.477Z" fill="#E5E5E5"/>
<path d="M593.583 66.281H379.409V73.3838H593.583V66.281Z" fill="#E5E5E5"/>
<path d="M593.583 83.5061H379.409V90.6089H593.583V83.5061Z" fill="#E5E5E5"/>
<path d="M292.396 383.945H0.765435C0.562429 383.945 0.367737 383.864 0.22419 383.72C0.0806433 383.577 0 383.382 0 383.179C0 382.976 0.0806433 382.781 0.22419 382.638C0.367737 382.494 0.562429 382.414 0.765435 382.414H292.396C292.599 382.414 292.794 382.494 292.938 382.638C293.081 382.781 293.162 382.976 293.162 383.179C293.162 383.382 293.081 383.577 292.938 383.72C292.794 383.864 292.599 383.945 292.396 383.945Z" fill="#CBCBCB"/>
</g>
<defs>
<clipPath id="clip0_20_620">
<rect width="637" height="383" fill="white" transform="translate(0 0.975586)"/>
</clipPath>
</defs>
</svg>
