<svg width="527" height="525" viewBox="0 0 527 525" fill="none" xmlns="http://www.w3.org/2000/svg">
<g clip-path="url(#clip0_7_243)">
<path d="M0 519.669C0 520.433 0.532386 521.048 1.19534 521.048H525.805C526.468 521.048 527 520.433 527 519.669C527 518.904 526.468 518.289 525.805 518.289H1.19534C0.532379 518.289 0 518.904 0 519.669Z" fill="#3F3C57"/>
<path d="M171.165 56.6636L176.87 86.6992L164.735 128.506L145.185 83.588L147.898 57.5292L171.165 56.6636Z" fill="#FDB4B4"/>
<path d="M177.93 85.1436H144.174V132.2H177.93V85.1436Z" fill="#4C7AC9"/>
<path d="M164.049 71.793C176.78 71.793 187.102 59.8849 187.102 45.1956C187.102 30.5062 176.78 18.5981 164.049 18.5981C151.317 18.5981 140.996 30.5062 140.996 45.1956C140.996 59.8849 151.317 71.793 164.049 71.793Z" fill="#FDB4B4"/>
<path d="M143.982 64.9735C143.982 64.9735 126.799 28.3585 142.292 10.7385C157.785 -6.8816 170.222 4.72892 170.222 4.72892L177.324 4.39776C177.324 4.39776 178.805 10.8463 181.194 7.35545C183.582 3.86456 187.898 16.5779 187.898 16.5779C195.908 33.2228 168.139 36.9515 168.139 36.9515C168.139 36.9515 170.144 44.3213 168.106 45.8647C166.068 47.4081 160.622 53.2141 160.622 53.2141L155.748 57.4615L152.851 52.3695C152.851 52.3695 149.826 49.6138 148.297 50.7714C146.768 51.929 148.871 67.1595 148.871 67.1595L143.982 64.9735Z" fill="#2E2E41"/>
<path d="M116.327 334.344L107.513 486.03L129.18 486.877L157.825 335.615L116.327 334.344Z" fill="#2E2E41"/>
<path d="M168.842 333.496L160.028 485.182L181.695 486.03L210.34 334.767L168.842 333.496Z" fill="#2E2E41"/>
<path d="M111.02 369L122.554 203.792L104.866 117.765C103.341 104.977 110.324 92.8765 121.103 89.5771L138.411 84.2791L146.072 75.4398L163.497 119.837L174.38 75.4737L182.868 82.5955L208.04 95.4088L208.029 95.7088L203.991 199.629L213.004 367.528L212.604 367.535L111.02 369Z" fill="#E8E9EA"/>
<path d="M180.304 484.306L186.578 505.915C186.578 505.915 211.122 509.765 211.504 518.532C211.886 527.299 178.147 522.224 158.391 523.37C138.635 524.515 155.08 499.831 155.08 499.831L157.185 485.647L180.304 484.306Z" fill="#2E2E41"/>
<path d="M129.069 482.75L135.343 504.359C135.343 504.359 159.887 508.209 160.269 516.976C160.651 525.743 126.912 520.668 107.156 521.814C87.3998 522.96 103.845 498.276 103.845 498.276L105.951 484.091L129.069 482.75Z" fill="#2E2E41"/>
<path d="M98.4605 281.26C98.1944 276.999 98.8168 272.727 100.276 268.801L95.5933 224.485L113.935 222.531L116.709 267.695C118.553 271.398 119.601 275.556 119.765 279.822C120.305 290.493 115.973 299.461 110.089 299.857C104.205 300.253 98.9985 291.927 98.4605 281.26Z" fill="#FDB4B4"/>
<path d="M214.633 287.765C214.408 283.501 215.07 279.237 216.566 275.329L212.303 230.957L230.662 229.234L233.009 274.43C234.818 278.156 235.826 282.327 235.951 286.595C236.389 297.272 231.973 306.185 226.085 306.507C220.198 306.829 215.07 298.438 214.633 287.765Z" fill="#FDB4B4"/>
<path d="M95.5177 263.487L95.4557 263.105L85.8965 203.929L97.1917 107.567C98.1995 98.9637 104.858 92.7664 112.366 93.459C116.287 93.8212 119.805 95.9668 122.273 99.5016C124.74 103.036 125.808 107.46 125.279 111.957L116.778 184.227L122.13 261.527L95.5177 263.487Z" fill="#E8E9EA"/>
<path d="M208.968 262.098L189.749 114.084C188.75 109.744 189.335 105.202 191.404 101.342C193.474 97.4824 196.735 94.8507 200.587 93.9314C207.957 92.1728 215.234 97.3706 217.158 105.763L235.621 260.24L208.968 262.098Z" fill="#E8E9EA"/>
<path d="M164.061 133.367C165.364 133.367 166.421 132.148 166.421 130.645C166.421 129.141 165.364 127.923 164.061 127.923C162.758 127.923 161.702 129.141 161.702 130.645C161.702 132.148 162.758 133.367 164.061 133.367Z" fill="#434648"/>
<path d="M164.061 153.979C165.364 153.979 166.421 152.76 166.421 151.257C166.421 149.753 165.364 148.534 164.061 148.534C162.758 148.534 161.702 149.753 161.702 151.257C161.702 152.76 162.758 153.979 164.061 153.979Z" fill="#434648"/>
<path d="M164.061 174.591C165.364 174.591 166.421 173.372 166.421 171.868C166.421 170.365 165.364 169.146 164.061 169.146C162.758 169.146 161.702 170.365 161.702 171.868C161.702 173.372 162.758 174.591 164.061 174.591Z" fill="#434648"/>
<path d="M164.061 195.202C165.364 195.202 166.421 193.983 166.421 192.48C166.421 190.976 165.364 189.758 164.061 189.758C162.758 189.758 161.702 190.976 161.702 192.48C161.702 193.983 162.758 195.202 164.061 195.202Z" fill="#434648"/>
<path d="M164.061 215.814C165.364 215.814 166.421 214.595 166.421 213.092C166.421 211.588 165.364 210.369 164.061 210.369C162.758 210.369 161.702 211.588 161.702 213.092C161.702 214.595 162.758 215.814 164.061 215.814Z" fill="#434648"/>
<path d="M164.061 236.426C165.364 236.426 166.421 235.207 166.421 233.703C166.421 232.2 165.364 230.981 164.061 230.981C162.758 230.981 161.702 232.2 161.702 233.703C161.702 235.207 162.758 236.426 164.061 236.426Z" fill="#434648"/>
<path d="M164.061 257.037C165.364 257.037 166.421 255.819 166.421 254.315C166.421 252.812 165.364 251.593 164.061 251.593C162.758 251.593 161.702 252.812 161.702 254.315C161.702 255.819 162.758 257.037 164.061 257.037Z" fill="#434648"/>
<path d="M164.061 277.649C165.364 277.649 166.421 276.43 166.421 274.927C166.421 273.423 165.364 272.204 164.061 272.204C162.758 272.204 161.702 273.423 161.702 274.927C161.702 276.43 162.758 277.649 164.061 277.649Z" fill="#434648"/>
<path d="M164.064 293.593L119.419 286.729L118.56 286.597L95.7429 225.898L82.1548 189.759H117.548L164.064 293.593Z" fill="#4C7AC9"/>
<path d="M343.064 63.2672L371.448 45.3269V96.5849H338.622L343.064 63.2672Z" fill="#2E2E41"/>
<path d="M377.534 74.6952L380.153 99.8598L361.274 143.236L349.556 102.864L355.065 73.8593L377.534 74.6952Z" fill="#FDB4B4"/>
<path d="M381.13 101.362H348.532V146.804H381.13V101.362Z" fill="#4C7AC9"/>
<path d="M408.021 342.011L416.532 488.492L395.609 489.311L367.947 343.239L408.021 342.011Z" fill="#2E2E41"/>
<path d="M357.308 341.193L365.819 487.674L344.896 488.492L317.234 342.42L357.308 341.193Z" fill="#2E2E41"/>
<path d="M430.127 373.079L429.628 373.077L296.335 372.575L296.455 372.031L330.724 215.378L322.14 136.321C320.514 121.341 327.464 107.181 339.436 101.088L343.758 98.8882L351.968 91.9992L362.472 134.821L379.292 91.9657L386.702 100.514L403.412 105.629C413.828 108.817 420.576 120.509 419.109 132.826L419.091 132.911L393.572 216.925L430.127 373.079Z" fill="#E8E9EA"/>
<path d="M346.239 486.828L368.565 488.122L370.598 501.82C370.598 501.82 386.479 525.657 367.401 524.551C348.322 523.445 315.741 528.345 316.11 519.879C316.479 511.413 340.181 507.695 340.181 507.695L346.239 486.828Z" fill="#2E2E41"/>
<path d="M395.716 485.326L418.042 486.62L420.075 500.318C420.075 500.318 435.956 524.155 416.877 523.049C397.799 521.942 365.218 526.843 365.587 518.377C365.955 509.911 389.658 506.193 389.658 506.193L395.716 485.326Z" fill="#2E2E41"/>
<path d="M416.16 289.246C415.641 299.548 410.613 307.588 404.931 307.206C399.249 306.823 395.066 298.163 395.587 287.858C395.746 283.739 396.758 279.723 398.538 276.147L401.217 232.533L418.929 234.42L414.408 277.215C415.816 281.007 416.417 285.132 416.16 289.246Z" fill="#FDB4B4"/>
<path d="M325.138 285.329C324.428 295.615 319.253 303.531 313.58 303.009C307.906 302.487 303.883 293.726 304.594 283.436C304.829 279.322 305.915 275.332 307.761 271.8L311.244 228.262L328.917 230.583L323.607 273.258C324.946 277.083 325.471 281.222 325.138 285.329Z" fill="#FDB4B4"/>
<path d="M419.013 272.1L393.289 270.205L393.32 269.76L398.458 195.544L390.25 125.755C389.738 121.408 390.77 117.132 393.155 113.716C395.54 110.299 398.94 108.225 402.731 107.875C409.989 107.215 416.424 113.196 417.398 121.512L428.306 214.569L428.295 214.639L419.013 272.1Z" fill="#E8E9EA"/>
<path d="M329.42 269.257L303.655 267.46L303.712 266.99L321.479 118.318C323.347 110.153 330.385 105.13 337.505 106.829C341.229 107.718 344.381 110.261 346.381 113.992C348.381 117.724 348.947 122.113 347.973 126.354L329.42 269.257Z" fill="#E8E9EA"/>
<path d="M361.925 147.931C363.183 147.931 364.204 146.754 364.204 145.302C364.204 143.85 363.183 142.673 361.925 142.673C360.667 142.673 359.646 143.85 359.646 145.302C359.646 146.754 360.667 147.931 361.925 147.931Z" fill="#2E2E41"/>
<path d="M361.925 167.835C363.183 167.835 364.204 166.658 364.204 165.206C364.204 163.755 363.183 162.578 361.925 162.578C360.667 162.578 359.646 163.755 359.646 165.206C359.646 166.658 360.667 167.835 361.925 167.835Z" fill="#2E2E41"/>
<path d="M361.925 187.74C363.183 187.74 364.204 186.563 364.204 185.111C364.204 183.659 363.183 182.482 361.925 182.482C360.667 182.482 359.646 183.659 359.646 185.111C359.646 186.563 360.667 187.74 361.925 187.74Z" fill="#2E2E41"/>
<path d="M361.925 207.644C363.183 207.644 364.204 206.467 364.204 205.015C364.204 203.563 363.183 202.386 361.925 202.386C360.667 202.386 359.646 203.563 359.646 205.015C359.646 206.467 360.667 207.644 361.925 207.644Z" fill="#2E2E41"/>
<path d="M361.925 227.549C363.183 227.549 364.204 226.372 364.204 224.92C364.204 223.468 363.183 222.291 361.925 222.291C360.667 222.291 359.646 223.468 359.646 224.92C359.646 226.372 360.667 227.549 361.925 227.549Z" fill="#2E2E41"/>
<path d="M361.925 247.453C363.183 247.453 364.204 246.276 364.204 244.824C364.204 243.372 363.183 242.195 361.925 242.195C360.667 242.195 359.646 243.372 359.646 244.824C359.646 246.276 360.667 247.453 361.925 247.453Z" fill="#2E2E41"/>
<path d="M361.925 267.357C363.183 267.357 364.204 266.181 364.204 264.729C364.204 263.277 363.183 262.1 361.925 262.1C360.667 262.1 359.646 263.277 359.646 264.729C359.646 266.181 360.667 267.357 361.925 267.357Z" fill="#2E2E41"/>
<path d="M361.925 287.262C363.183 287.262 364.204 286.085 364.204 284.633C364.204 283.181 363.183 282.004 361.925 282.004C360.667 282.004 359.646 283.181 359.646 284.633C359.646 286.085 360.667 287.262 361.925 287.262Z" fill="#2E2E41"/>
<path d="M365.384 87.5382C377.154 87.5382 386.696 76.5292 386.696 62.9489C386.696 49.3686 377.154 38.3596 365.384 38.3596C353.614 38.3596 344.072 49.3686 344.072 62.9489C344.072 76.5292 353.614 87.5382 365.384 87.5382Z" fill="#FDB4B4"/>
<path d="M376.553 34.244C377.574 36.6404 375.955 39.6338 373.811 40.6413C371.668 41.6488 369.246 41.2406 366.96 40.8212C364.675 40.4018 362.25 40.0041 360.113 41.0295C357.347 42.3562 355.789 45.6842 354.445 48.7725C351.938 54.5378 349.431 60.3031 346.923 66.0684C345.698 68.8852 344.445 71.8287 344.422 74.9802C344.378 80.7649 348.356 85.3878 350.496 90.6194C353.101 96.9891 352.886 104.795 349.936 110.961C346.985 117.128 341.374 121.496 335.314 122.346C333.719 122.57 332.032 122.546 330.598 121.71C329.165 120.874 328.07 119.049 328.336 117.221C328.855 113.646 333.59 112.811 334.459 109.328C334.913 107.51 334.109 105.568 333.025 104.148C331.942 102.728 330.571 101.62 329.538 100.151C327.154 96.7638 326.995 91.5349 329.167 87.9635C330.444 85.8646 332.419 84.3052 333.244 81.9243C333.947 79.895 333.691 77.6138 333.425 75.4499C333.083 72.6695 332.741 69.889 332.398 67.1085C331.999 63.8645 331.606 60.5042 332.395 57.3566C334.203 50.1437 341.262 46.7561 345.402 40.9624C347.326 38.2701 348.62 35.0322 350.593 32.3884C353.905 27.9517 359.119 25.5042 364.175 26.0129C369.231 26.5217 373.998 29.9738 376.595 35.005" fill="#2E2E41"/>
<path d="M373.188 34.6988C372.147 35.1284 371.761 36.6931 372.06 37.9212C372.36 39.1493 373.145 40.125 373.863 41.095C381.988 52.0653 383.876 68.659 378.482 81.6774C377.047 85.1402 375.135 88.3991 374.361 92.1319C373.798 94.848 373.829 97.8274 372.523 100.179C371.193 102.573 368.558 104.177 368.298 107.004C368.13 108.818 369.089 110.581 370.374 111.645C371.659 112.708 373.228 113.195 374.772 113.592C378.784 114.623 382.886 115.187 386.996 115.27C388.336 115.297 389.719 115.264 390.948 114.648C392.177 114.032 393.226 112.696 393.24 111.15C393.251 109.935 392.644 108.814 392.566 107.602C392.334 103.971 396.569 102.039 397.394 98.5242C397.937 96.2136 396.868 93.836 395.729 91.8347C394.591 89.8335 393.292 87.7321 393.32 85.3384C393.346 83.047 394.593 81.0289 395.077 78.8064C395.747 75.7323 394.924 72.5167 394.108 69.49C393.414 66.9168 392.719 64.3436 392.025 61.7704C391.287 59.035 390.55 56.2995 389.812 53.5641C388.524 48.7886 387.171 43.8748 384.384 40.0446C381.596 36.2144 376.977 33.704 372.86 35.2678" fill="#2E2E41"/>
<path d="M387.711 129.983L386.25 129.491C389.294 117.452 382.732 94.9853 382.665 94.7599L384.105 94.1932C384.384 95.1358 390.888 117.416 387.711 129.983Z" fill="#3F3C57"/>
<path d="M386.981 143.811C390.491 143.811 393.337 140.528 393.337 136.478C393.337 132.428 390.491 129.145 386.981 129.145C383.47 129.145 380.625 132.428 380.625 136.478C380.625 140.528 383.47 143.811 386.981 143.811Z" fill="#3F3C57"/>
<path d="M345.218 162.44H341.364C340.943 162.44 340.603 162.047 340.603 161.562C340.603 161.077 340.943 160.684 341.364 160.684H345.218C346.281 160.684 347.279 160.207 348.029 159.339C348.779 158.472 349.191 157.319 349.189 156.094L349.142 128.702C349.142 122.751 344.947 117.911 339.791 117.911C334.635 117.911 330.439 122.751 330.439 128.7L330.486 154.34C330.49 156.841 332.258 158.892 334.426 158.911L337.072 158.934C337.491 158.938 337.829 159.333 337.826 159.819C337.823 160.301 337.483 160.69 337.066 160.69H337.06L334.414 160.666C331.415 160.64 328.97 157.803 328.964 154.343L328.917 128.702C328.917 121.783 333.795 116.155 339.791 116.155C345.786 116.155 350.664 121.783 350.664 128.7L350.71 156.091C350.713 157.786 350.144 159.38 349.106 160.579C348.068 161.779 346.687 162.44 345.218 162.44Z" fill="#3F3C57"/>
<path d="M337.066 162.923C338.555 162.923 339.763 161.53 339.763 159.812C339.763 158.094 338.555 156.701 337.066 156.701C335.577 156.701 334.369 158.094 334.369 159.812C334.369 161.53 335.577 162.923 337.066 162.923Z" fill="#3F3C57"/>
<path d="M341.364 164.673C342.853 164.673 344.06 163.28 344.06 161.562C344.06 159.844 342.853 158.451 341.364 158.451C339.874 158.451 338.667 159.844 338.667 161.562C338.667 163.28 339.874 164.673 341.364 164.673Z" fill="#3F3C57"/>
<path d="M185.693 116.825L184.232 116.334C187.275 104.294 180.787 81.4796 180.721 81.2541L182.547 82.8421C182.825 83.7846 188.869 104.258 185.693 116.825Z" fill="#3F3C57"/>
<path d="M134.345 118.964L135.806 118.473C132.763 106.433 139.325 83.9665 139.391 83.741L137.828 84.9486C137.55 85.8912 131.168 106.397 134.345 118.964Z" fill="#3F3C57"/>
<path d="M184.962 130.653C188.473 130.653 191.318 127.37 191.318 123.32C191.318 119.27 188.473 115.987 184.962 115.987C181.452 115.987 178.606 119.27 178.606 123.32C178.606 127.37 181.452 130.653 184.962 130.653Z" fill="#3F3C57"/>
<path d="M141.121 164.06H137.267C136.846 164.06 136.506 163.667 136.506 163.182C136.506 162.697 136.846 162.304 137.267 162.304H141.121C142.184 162.304 143.182 161.827 143.932 160.959C144.682 160.092 145.094 158.94 145.092 157.715L145.045 130.322C145.045 124.371 140.85 119.531 135.694 119.531C130.538 119.531 126.342 124.371 126.342 130.32L126.389 155.96C126.393 158.462 128.161 160.512 130.329 160.531L132.975 160.554C133.394 160.558 133.732 160.954 133.729 161.439C133.726 161.921 133.386 162.31 132.969 162.31H132.963L130.317 162.287C127.318 162.26 124.873 159.423 124.867 155.964L124.82 130.322C124.82 123.403 129.698 117.776 135.694 117.776C141.689 117.776 146.567 123.403 146.567 130.32L146.613 157.711C146.616 159.406 146.047 161 145.009 162.199C143.971 163.399 142.59 164.06 141.121 164.06Z" fill="#3F3C57"/>
<path d="M132.969 164.543C134.458 164.543 135.665 163.151 135.665 161.432C135.665 159.714 134.458 158.321 132.969 158.321C131.48 158.321 130.272 159.714 130.272 161.432C130.272 163.151 131.48 164.543 132.969 164.543Z" fill="#3F3C57"/>
<path d="M137.267 166.294C138.756 166.294 139.963 164.901 139.963 163.182C139.963 161.464 138.756 160.071 137.267 160.071C135.777 160.071 134.57 161.464 134.57 163.182C134.57 164.901 135.777 166.294 137.267 166.294Z" fill="#3F3C57"/>
</g>
<defs>
<clipPath id="clip0_7_243">
<rect width="527" height="524" fill="white" transform="translate(0 0.975555)"/>
</clipPath>
</defs>
</svg>
